<?xml version="1.0" encoding="UTF-8"?>
<svg width="16px" height="16px" viewBox="0 0 16 16" version="1.1" xmlns="http://www.w3.org/2000/svg" xmlns:xlink="http://www.w3.org/1999/xlink">
	<g id="Edit-Category" stroke="none" stroke-width="1" fill="none" fill-rule="evenodd" transform="translate(-430.000000, -712.000000)">
		<g id="trash29" transform="translate(430.000000, 712.000000)" fill="#969696">
			<g id="Group" transform="translate(0.873016, 0.000000)">
				<path d="M14.5553016,2.79606349 C14.4933333,2.73409524 14.4139683,2.70298413 14.3174603,2.70298413 L11.1205079,2.70298413 L10.3963175,0.975365079 C10.2929524,0.720126984 10.1067937,0.502857143 9.83784127,0.323555556 C9.5687619,0.144253968 9.29625397,0.0546031746 9.02031746,0.0546031746 L5.70971429,0.0546031746 C5.43390476,0.0546031746 5.16139683,0.144253968 4.89244444,0.323555556 C4.62336508,0.502857143 4.43720635,0.720126984 4.33371429,0.975365079 L3.60952381,2.70298413 L0.412698413,2.70298413 C0.316063492,2.70298413 0.236825397,2.73409524 0.174730159,2.79606349 C0.112761905,2.85815873 0.0816507937,2.93752381 0.0816507937,3.03403175 L0.0816507937,3.69625397 C0.0816507937,3.7927619 0.112634921,3.87212698 0.174730159,3.93409524 C0.236825397,3.99619048 0.316190476,4.0271746 0.412698413,4.0271746 L1.40584127,4.0271746 L1.40584127,13.8763175 C1.40584127,14.4488889 1.56787302,14.9368889 1.89206349,15.3401905 C2.21625397,15.743873 2.60596825,15.9455238 3.06120635,15.9455238 L11.6689524,15.9455238 C12.1243175,15.9455238 12.5139048,15.7368889 12.8380952,15.319746 C13.1622857,14.9023492 13.3241905,14.4074921 13.3241905,13.8351746 L13.3241905,4.0271746 L14.3174603,4.0271746 C14.4139683,4.0271746 14.4933333,3.99619048 14.5553016,3.93409524 C14.6172698,3.87212698 14.6485079,3.7927619 14.6485079,3.69625397 L14.6485079,3.03403175 C14.6485079,2.93752381 14.6172698,2.85815873 14.5553016,2.79606349 L14.5553016,2.79606349 Z M5.55453968,1.49244444 C5.60279365,1.43034921 5.66146032,1.39238095 5.7304127,1.37866667 L9.01003175,1.37866667 C9.07898413,1.39250794 9.13765079,1.43047619 9.18590476,1.49244444 L9.68253968,2.70285714 L5.04761905,2.70285714 L5.55453968,1.49244444 L5.55453968,1.49244444 Z M12,13.8350476 C12,13.9867937 11.976,14.1264762 11.927619,14.2539683 C11.8792381,14.3815873 11.8292063,14.4746667 11.7775238,14.5333333 C11.7258413,14.592 11.6897778,14.6212063 11.6689524,14.6212063 L3.06120635,14.6212063 C3.04050794,14.6212063 3.00444444,14.592 2.95263492,14.5333333 C2.9008254,14.4746667 2.85079365,14.3815873 2.80253968,14.2539683 C2.75428571,14.1264762 2.73015873,13.9866667 2.73015873,13.8350476 L2.73015873,4.0271746 L12,4.0271746 L12,13.8350476 L12,13.8350476 Z" id="Shape"></path>
				<path d="M4.38552381,12.6349206 L5.04761905,12.6349206 C5.14425397,12.6349206 5.22361905,12.6039365 5.2855873,12.5419683 C5.34755556,12.479746 5.37866667,12.4006349 5.37866667,12.303873 L5.37866667,6.34463492 C5.37866667,6.24812698 5.34755556,6.1687619 5.2855873,6.10666667 C5.22349206,6.04469841 5.14425397,6.01371429 5.04761905,6.01371429 L4.38552381,6.01371429 C4.28888889,6.01371429 4.20965079,6.04469841 4.14755556,6.10666667 C4.0855873,6.1687619 4.05447619,6.24812698 4.05447619,6.34463492 L4.05447619,12.303873 C4.05447619,12.4006349 4.08546032,12.479746 4.14755556,12.5419683 C4.20965079,12.6039365 4.28888889,12.6349206 4.38552381,12.6349206 L4.38552381,12.6349206 Z" id="Shape"></path>
				<path d="M7.03403175,12.6349206 L7.69612698,12.6349206 C7.7927619,12.6349206 7.87212698,12.6039365 7.93396825,12.5419683 C7.99619048,12.479746 8.02704762,12.4006349 8.02704762,12.303873 L8.02704762,6.34463492 C8.02704762,6.24812698 7.99619048,6.1687619 7.93396825,6.10666667 C7.87212698,6.04469841 7.7927619,6.01371429 7.69612698,6.01371429 L7.03403175,6.01371429 C6.93752381,6.01371429 6.85815873,6.04469841 6.79606349,6.10666667 C6.73396825,6.1687619 6.70298413,6.24812698 6.70298413,6.34463492 L6.70298413,12.303873 C6.70298413,12.4006349 6.73396825,12.479746 6.79606349,12.5419683 C6.85815873,12.6039365 6.93752381,12.6349206 7.03403175,12.6349206 L7.03403175,12.6349206 Z" id="Shape"></path>
				<path d="M9.68253968,12.6349206 L10.3446349,12.6349206 C10.4412698,12.6349206 10.5206349,12.6039365 10.5826032,12.5419683 C10.6445714,12.479746 10.6755556,12.4006349 10.6755556,12.303873 L10.6755556,6.34463492 C10.6755556,6.24812698 10.6445714,6.1687619 10.5826032,6.10666667 C10.5206349,6.04469841 10.4412698,6.01371429 10.3446349,6.01371429 L9.68253968,6.01371429 C9.58590476,6.01371429 9.50666667,6.04469841 9.44457143,6.10666667 C9.38247619,6.1687619 9.35149206,6.24812698 9.35149206,6.34463492 L9.35149206,12.303873 C9.35149206,12.4006349 9.38247619,12.479746 9.44457143,12.5419683 C9.50666667,12.6039365 9.58590476,12.6349206 9.68253968,12.6349206 L9.68253968,12.6349206 Z" id="Shape"></path>
			</g>
		</g>
	</g>
</svg>
